<svg width="32" height="32" viewBox="0 0 32 32" fill="none" xmlns="http://www.w3.org/2000/svg">
<path d="M10.6667 7.99121V15.9912M20.0001 7.99121V15.9912M2.66675 15.9912H28.8001M24.0001 23.9912H28.0001C28.0001 23.9912 28.6667 21.7245 29.0667 20.2579C29.2001 19.7245 29.3334 19.1912 29.3334 18.6579C29.3334 18.1245 29.2001 17.5912 29.0667 17.0579L27.2001 10.3912C26.8001 9.05788 25.4667 7.99121 24.0001 7.99121H5.33341C4.62617 7.99121 3.94789 8.27216 3.4478 8.77226C2.9477 9.27236 2.66675 9.95063 2.66675 10.6579V23.9912H6.66675M24.0001 23.9912C24.0001 25.464 22.8062 26.6579 21.3334 26.6579C19.8607 26.6579 18.6667 25.464 18.6667 23.9912M24.0001 23.9912C24.0001 22.5184 22.8062 21.3245 21.3334 21.3245C19.8607 21.3245 18.6667 22.5184 18.6667 23.9912M6.66675 23.9912C6.66675 25.464 7.86066 26.6579 9.33341 26.6579C10.8062 26.6579 12.0001 25.464 12.0001 23.9912M6.66675 23.9912C6.66675 22.5184 7.86066 21.3245 9.33341 21.3245C10.8062 21.3245 12.0001 22.5184 12.0001 23.9912M12.0001 23.9912H18.6667" stroke="#4F4F4F" stroke-width="3.2" stroke-linecap="round" stroke-linejoin="round"/>
</svg>
