<svg width="32" height="32" viewBox="0 0 32 32" fill="none" xmlns="http://www.w3.org/2000/svg">
<path d="M4 15.9912C4 18.3646 4.70379 20.6847 6.02236 22.6581C7.34094 24.6314 9.21508 26.1695 11.4078 27.0778C13.6005 27.986 16.0133 28.2237 18.3411 27.7606C20.6689 27.2976 22.807 26.1547 24.4853 24.4765C26.1635 22.7983 27.3064 20.6601 27.7694 18.3323C28.2324 16.0045 27.9948 13.5917 27.0866 11.399C26.1783 9.2063 24.6402 7.33215 22.6668 6.01358C20.6934 4.695 18.3734 3.99121 16 3.99121C12.6453 4.00383 9.42529 5.31284 7.01333 7.64454L4 10.6579M4 10.6579V3.99121M4 10.6579H10.6667" stroke="#4F4F4F" stroke-width="3.2" stroke-linecap="round" stroke-linejoin="round"/>
</svg>
