<svg width="32" height="32" viewBox="0 0 32 32" fill="none" xmlns="http://www.w3.org/2000/svg">
<path d="M26.6668 17.325C26.6668 23.9916 22.0002 27.325 16.4535 29.2583C16.163 29.3567 15.8475 29.352 15.5602 29.245C10.0002 27.325 5.3335 23.9916 5.3335 17.325V7.99165C5.3335 7.63802 5.47397 7.29889 5.72402 7.04884C5.97407 6.79879 6.31321 6.65831 6.66683 6.65831C9.3335 6.65831 12.6668 5.05831 14.9868 3.03165C15.2693 2.79031 15.6286 2.65771 16.0002 2.65771C16.3717 2.65771 16.731 2.79031 17.0135 3.03165C19.3468 5.07165 22.6668 6.65831 25.3335 6.65831C25.6871 6.65831 26.0263 6.79879 26.2763 7.04884C26.5264 7.29889 26.6668 7.63802 26.6668 7.99165V17.325Z" stroke="#4F4F4F" stroke-width="3.2" stroke-linecap="round" stroke-linejoin="round"/>
</svg>
